<svg width="97" height="24" viewBox="0 0 97 24" fill="none" xmlns="http://www.w3.org/2000/svg">
<g clip-path="url(#clip0_220_949)">
<path d="M19.0463 0H4.95374C2.21787 0 0 2.21787 0 4.95374V19.0463C0 21.7821 2.21787 24 4.95374 24H19.0463C21.7821 24 24 21.7821 24 19.0463V4.95374C24 2.21787 21.7821 0 19.0463 0Z" fill="white"/>
<path d="M8.604 5.55159C8.604 5.3629 8.75696 5.20995 8.94564 5.20995H18.961C19.1497 5.20995 19.3026 5.3629 19.3026 5.55159V7.25979C19.3026 7.44845 19.1497 7.6014 18.961 7.6014H8.94564C8.75696 7.6014 8.604 7.44845 8.604 7.25979V5.55159Z" fill="black"/>
<path d="M4.78296 9.30963C4.78296 9.12094 4.93594 8.96799 5.1246 8.96799H15.14C15.3287 8.96799 15.4816 9.12094 15.4816 9.30963V11.0178C15.4816 11.2065 15.3287 11.3594 15.14 11.3594H5.1246C4.93594 11.3594 4.78296 11.2065 4.78296 11.0178V9.30963Z" fill="black"/>
<path d="M8.604 13.0676C8.604 12.8789 8.75696 12.726 8.94564 12.726H18.961C19.1497 12.726 19.3026 12.8789 19.3026 13.0676V14.7758C19.3026 14.9645 19.1497 15.1174 18.961 15.1174H8.94564C8.75696 15.1174 8.604 14.9645 8.604 14.7758V13.0676Z" fill="black"/>
<path d="M4.78296 16.8256C4.78296 16.6369 4.93594 16.484 5.1246 16.484H15.14C15.3287 16.484 15.4816 16.6369 15.4816 16.8256V18.5338C15.4816 18.7225 15.3287 18.8754 15.14 18.8754H5.1246C4.93594 18.8754 4.78296 18.7225 4.78296 18.5338V16.8256Z" fill="black"/>
</g>
<path d="M90.4246 21.3923C89.0824 21.3923 87.9217 21.1071 86.9424 20.5369C85.9689 19.9608 85.2172 19.1601 84.6873 18.1348C84.1573 17.1037 83.8923 15.9084 83.8923 14.549C83.8923 13.178 84.1573 11.9799 84.6873 10.9545C85.2172 9.9234 85.9689 9.12271 86.9424 8.55244C87.9217 7.9764 89.0824 7.68839 90.4246 7.68839C91.7667 7.68839 92.9246 7.9764 93.8981 8.55244C94.8773 9.12271 95.6319 9.9234 96.1619 10.9545C96.6918 11.9799 96.9568 13.178 96.9568 14.549C96.9568 15.9084 96.6918 17.1037 96.1619 18.1348C95.6319 19.1601 94.8773 19.9608 93.8981 20.5369C92.9246 21.1071 91.7667 21.3923 90.4246 21.3923ZM90.4419 18.5409C91.0525 18.5409 91.5623 18.3681 91.9712 18.0225C92.3802 17.6711 92.6884 17.193 92.8958 16.5881C93.1089 15.9833 93.2155 15.2949 93.2155 14.5231C93.2155 13.7512 93.1089 13.0628 92.8958 12.458C92.6884 11.8531 92.3802 11.375 91.9712 11.0236C91.5623 10.6723 91.0525 10.4966 90.4419 10.4966C89.8255 10.4966 89.3071 10.6723 88.8866 11.0236C88.4718 11.375 88.1579 11.8531 87.9447 12.458C87.7374 13.0628 87.6337 13.7512 87.6337 14.5231C87.6337 15.2949 87.7374 15.9833 87.9447 16.5881C88.1579 17.193 88.4718 17.6711 88.8866 18.0225C89.3071 18.3681 89.8255 18.5409 90.4419 18.5409Z" fill="white"/>
<path d="M83.8709 7.86119V10.6262H75.6797V7.86119H83.8709ZM77.5547 21.1331V6.90209C77.5547 5.94011 77.7419 5.1423 78.1163 4.50866C78.4965 3.87502 79.0149 3.39979 79.6716 3.08297C80.3283 2.76615 81.0743 2.60774 81.9095 2.60774C82.474 2.60774 82.9896 2.65095 83.4562 2.73735C83.9285 2.82376 84.2799 2.90152 84.5103 2.97065L83.8536 5.73562C83.7096 5.68954 83.5311 5.64633 83.3179 5.60601C83.1106 5.56569 82.8974 5.54553 82.6785 5.54553C82.1371 5.54553 81.7597 5.67225 81.5466 5.92571C81.3335 6.17341 81.2269 6.52191 81.2269 6.97122V21.1331H77.5547Z" fill="white"/>
<path d="M75.0019 3.43723V21.1331H71.321V3.43723H75.0019Z" fill="white"/>
<path d="M64.0441 21.3923C62.6788 21.3923 61.5037 21.1158 60.5187 20.5628C59.5395 20.004 58.7848 19.2149 58.2549 18.1953C57.7249 17.1699 57.46 15.9574 57.46 14.5576C57.46 13.1924 57.7249 11.9943 58.2549 10.9631C58.7848 9.93205 59.5308 9.12847 60.4928 8.55244C61.4605 7.9764 62.5953 7.68839 63.8972 7.68839C64.7727 7.68839 65.5878 7.82951 66.3424 8.11177C67.1028 8.38827 67.7652 8.80589 68.3298 9.36465C68.9 9.9234 69.3436 10.6262 69.6604 11.4729C69.9772 12.314 70.1356 13.299 70.1356 14.428V15.4389H58.9289V13.1578H66.6708C66.6708 12.6279 66.5556 12.1584 66.3252 11.7494C66.0947 11.3405 65.775 11.0208 65.3661 10.7903C64.9628 10.5542 64.4934 10.4361 63.9576 10.4361C63.3989 10.4361 62.9035 10.5657 62.4715 10.8249C62.0452 11.0784 61.7111 11.4211 61.4692 11.8531C61.2272 12.2794 61.1034 12.7546 61.0976 13.2788V15.4476C61.0976 16.1043 61.2186 16.6717 61.4605 17.1498C61.7082 17.6279 62.0567 17.9965 62.506 18.2558C62.9553 18.515 63.4882 18.6446 64.1045 18.6446C64.5135 18.6446 64.8879 18.587 65.2278 18.4718C65.5677 18.3566 65.8586 18.1838 66.1005 17.9533C66.3424 17.7229 66.5268 17.4407 66.6535 17.1066L70.0579 17.3312C69.8851 18.1492 69.5308 18.8635 68.9951 19.4741C68.4651 20.0789 67.7796 20.5513 66.9386 20.8911C66.1034 21.2252 65.1385 21.3923 64.0441 21.3923Z" fill="white"/>
<path d="M47.7094 13.4603V21.1331H44.0286V3.43723H47.6057V10.2028H47.7613C48.0608 9.41936 48.5447 8.80588 49.2129 8.36233C49.8811 7.91302 50.7192 7.68837 51.7273 7.68837C52.6489 7.68837 53.4525 7.88998 54.138 8.29321C54.8292 8.69067 55.365 9.26383 55.7451 10.0127C56.1311 10.7558 56.3212 11.6457 56.3154 12.6826V21.1331H52.6345V13.3393C52.6403 12.5213 52.4329 11.8848 52.0124 11.4297C51.5977 10.9747 51.0159 10.7471 50.267 10.7471C49.7659 10.7471 49.3223 10.8537 48.9364 11.0668C48.5562 11.28 48.2567 11.591 48.0378 12C47.8246 12.4032 47.7152 12.89 47.7094 13.4603Z" fill="white"/>
<path d="M38.97 8.52651C38.9008 7.82951 38.6042 7.28803 38.08 6.90209C37.5558 6.51614 36.8444 6.32317 35.9458 6.32317C35.3352 6.32317 34.8196 6.40958 34.3991 6.58239C33.9786 6.74944 33.656 6.98273 33.4314 7.28227C33.2125 7.58181 33.103 7.92167 33.103 8.30186C33.0915 8.61868 33.1578 8.89517 33.3018 9.13135C33.4515 9.36752 33.656 9.57202 33.9152 9.74483C34.1745 9.91188 34.474 10.0588 34.8139 10.1855C35.1537 10.3065 35.5166 10.4101 35.9026 10.4966L37.4924 10.8767C38.2643 11.0495 38.9728 11.28 39.618 11.568C40.2632 11.856 40.8219 12.2103 41.2943 12.6308C41.7666 13.0513 42.1324 13.5467 42.3916 14.1169C42.6566 14.6872 42.792 15.341 42.7977 16.0783C42.792 17.1613 42.5155 18.1002 41.9682 18.8952C41.4268 19.6843 40.6433 20.2978 39.618 20.7356C38.5984 21.1676 37.3686 21.3836 35.9285 21.3836C34.4999 21.3836 33.2557 21.1647 32.1958 20.727C31.1416 20.2892 30.3179 19.6411 29.7246 18.7828C29.137 17.9188 28.8289 16.8502 28.8 15.5772H32.4204C32.4608 16.1705 32.6307 16.6659 32.9302 17.0634C33.2355 17.4551 33.6416 17.7517 34.1485 17.9533C34.6612 18.1492 35.2401 18.2471 35.8853 18.2471C36.5189 18.2471 37.069 18.155 37.5356 17.9706C38.008 17.7863 38.3738 17.53 38.633 17.2016C38.8922 16.8733 39.0218 16.496 39.0218 16.0697C39.0218 15.6722 38.9037 15.3381 38.6675 15.0674C38.4371 14.7967 38.0973 14.5662 37.648 14.3762C37.2044 14.1861 36.6601 14.0133 36.0149 13.8577L34.0881 13.3739C32.5961 13.011 31.4181 12.4436 30.5541 11.6717C29.69 10.8998 29.2609 9.86003 29.2666 8.55243C29.2609 7.481 29.546 6.54495 30.1221 5.74426C30.7038 4.94357 31.5017 4.31857 32.5155 3.86926C33.5293 3.41995 34.6814 3.1953 35.9717 3.1953C37.2851 3.1953 38.4314 3.41995 39.4106 3.86926C40.3957 4.31857 41.1618 4.94357 41.709 5.74426C42.2563 6.54495 42.5385 7.47236 42.5558 8.52651H38.97Z" fill="white"/>
<defs>
<clipPath id="clip0_220_949">
<rect width="24" height="24" fill="white"/>
</clipPath>
</defs>
</svg>
